<?xml version="1.0" encoding="UTF-8" standalone="no"?>
<!-- Created with Inkscape (http://www.inkscape.org/) -->

<svg
   xmlns:dc="http://purl.org/dc/elements/1.1/"
   xmlns:cc="http://creativecommons.org/ns#"
   xmlns:rdf="http://www.w3.org/1999/02/22-rdf-syntax-ns#"
   xmlns:svg="http://www.w3.org/2000/svg"
   xmlns="http://www.w3.org/2000/svg"
   xmlns:xlink="http://www.w3.org/1999/xlink"
   xmlns:sodipodi="http://sodipodi.sourceforge.net/DTD/sodipodi-0.dtd"
   xmlns:inkscape="http://www.inkscape.org/namespaces/inkscape"
   width="96"
   height="96"
   id="svg2"
   version="1.1"
   inkscape:version="0.48.3.1 r9886"
   sodipodi:docname="instructor.svg"
   inkscape:export-filename="instructor.png"
   inkscape:export-xdpi="30"
   inkscape:export-ydpi="30">
  <defs
     id="defs4">
    <linearGradient
       inkscape:collect="always"
       id="linearGradient3713">
      <stop
         style="stop-color:#ffffff;stop-opacity:1;"
         offset="0"
         id="stop3715" />
      <stop
         style="stop-color:#ffffff;stop-opacity:0;"
         offset="1"
         id="stop3717" />
    </linearGradient>
    <linearGradient
       id="linearGradient4044">
      <stop
         id="stop4046"
         offset="0"
         style="stop-color:#ffffff;stop-opacity:1;" />
      <stop
         id="stop4048"
         offset="1"
         style="stop-color:#ffffff;stop-opacity:0;" />
    </linearGradient>
    <linearGradient
       id="linearGradient3988">
      <stop
         style="stop-color:#000000;stop-opacity:1;"
         offset="0"
         id="stop3990" />
      <stop
         style="stop-color:#000000;stop-opacity:0;"
         offset="1"
         id="stop3992" />
    </linearGradient>
    <linearGradient
       inkscape:collect="always"
       id="linearGradient3679">
      <stop
         style="stop-color:#ffffff;stop-opacity:1;"
         offset="0"
         id="stop3681" />
      <stop
         style="stop-color:#ffffff;stop-opacity:0;"
         offset="1"
         id="stop3683" />
    </linearGradient>
    <linearGradient
       id="linearGradient3649">
      <stop
         style="stop-color:#ffffff;stop-opacity:1;"
         offset="0"
         id="stop3651" />
      <stop
         style="stop-color:#ffffff;stop-opacity:0;"
         offset="1"
         id="stop3653" />
    </linearGradient>
    <linearGradient
       inkscape:collect="always"
       id="linearGradient3625">
      <stop
         style="stop-color:#ffffff;stop-opacity:1;"
         offset="0"
         id="stop3627" />
      <stop
         style="stop-color:#ffffff;stop-opacity:0;"
         offset="1"
         id="stop3629" />
    </linearGradient>
    <linearGradient
       id="linearGradient3615">
      <stop
         style="stop-color:#000000;stop-opacity:0.85840708;"
         offset="0"
         id="stop3617" />
      <stop
         id="stop3643"
         offset="0.13008417"
         style="stop-color:#000000;stop-opacity:0.52212387;" />
      <stop
         style="stop-color:#000000;stop-opacity:0.43529412;"
         offset="0.89478755"
         id="stop3645" />
      <stop
         style="stop-color:#000000;stop-opacity:0.60176992;"
         offset="1"
         id="stop3619" />
    </linearGradient>
    <inkscape:perspective
       sodipodi:type="inkscape:persp3d"
       inkscape:vp_x="0 : 526.18109 : 1"
       inkscape:vp_y="0 : 1000 : 0"
       inkscape:vp_z="744.09448 : 526.18109 : 1"
       inkscape:persp3d-origin="372.04724 : 350.78739 : 1"
       id="perspective10" />
    <inkscape:perspective
       id="perspective2824"
       inkscape:persp3d-origin="0.5 : 0.33333333 : 1"
       inkscape:vp_z="1 : 0.5 : 1"
       inkscape:vp_y="0 : 1000 : 0"
       inkscape:vp_x="0 : 0.5 : 1"
       sodipodi:type="inkscape:persp3d" />
    <inkscape:perspective
       id="perspective3746"
       inkscape:persp3d-origin="0.5 : 0.33333333 : 1"
       inkscape:vp_z="1 : 0.5 : 1"
       inkscape:vp_y="0 : 1000 : 0"
       inkscape:vp_x="0 : 0.5 : 1"
       sodipodi:type="inkscape:persp3d" />
    <inkscape:perspective
       id="perspective3768"
       inkscape:persp3d-origin="0.5 : 0.33333333 : 1"
       inkscape:vp_z="1 : 0.5 : 1"
       inkscape:vp_y="0 : 1000 : 0"
       inkscape:vp_x="0 : 0.5 : 1"
       sodipodi:type="inkscape:persp3d" />
    <linearGradient
       inkscape:collect="always"
       xlink:href="#linearGradient3615"
       id="linearGradient3954"
       gradientUnits="userSpaceOnUse"
       x1="23.999851"
       y1="939.65887"
       x2="105.21535"
       y2="940.23486" />
    <linearGradient
       inkscape:collect="always"
       xlink:href="#linearGradient3625"
       id="linearGradient3956"
       gradientUnits="userSpaceOnUse"
       gradientTransform="translate(0,925.13018)"
       x1="35.61578"
       y1="11.840724"
       x2="28.895821"
       y2="15.872699" />
    <linearGradient
       inkscape:collect="always"
       xlink:href="#linearGradient3625"
       id="linearGradient3958"
       gradientUnits="userSpaceOnUse"
       gradientTransform="translate(0,925.03418)"
       x1="97.5354"
       y1="16.064697"
       x2="95.231407"
       y2="12.032723" />
    <linearGradient
       inkscape:collect="always"
       xlink:href="#linearGradient3649"
       id="linearGradient3960"
       gradientUnits="userSpaceOnUse"
       x1="25.829813"
       y1="945.73328"
       x2="99.169922"
       y2="1017.0289" />
    <linearGradient
       inkscape:collect="always"
       xlink:href="#linearGradient3679"
       id="linearGradient3962"
       gradientUnits="userSpaceOnUse"
       x1="89.855438"
       y1="944.45886"
       x2="-10.751933"
       y2="1020.8744" />
    <radialGradient
       inkscape:collect="always"
       xlink:href="#linearGradient3649"
       id="radialGradient3964"
       gradientUnits="userSpaceOnUse"
       gradientTransform="matrix(0.59482468,0,0,0.49687712,26.179534,493.69964)"
       cx="64.612862"
       cy="981.27051"
       fx="64.612862"
       fy="981.27051"
       r="43.595661" />
    <linearGradient
       inkscape:collect="always"
       xlink:href="#linearGradient3988"
       id="linearGradient3994"
       x1="22.588236"
       y1="100.15868"
       x2="22.770535"
       y2="125.23379"
       gradientUnits="userSpaceOnUse" />
    <radialGradient
       inkscape:collect="always"
       xlink:href="#linearGradient3649"
       id="radialGradient3997"
       gradientUnits="userSpaceOnUse"
       gradientTransform="matrix(0.59482468,0,0,-0.49687712,26.179534,627.89402)"
       cx="64.612862"
       cy="981.27051"
       fx="64.612862"
       fy="981.27051"
       r="43.595661" />
    <linearGradient
       inkscape:collect="always"
       xlink:href="#linearGradient3679"
       id="linearGradient4001"
       gradientUnits="userSpaceOnUse"
       x1="89.855438"
       y1="944.45886"
       x2="-10.751933"
       y2="1020.8744"
       gradientTransform="matrix(1,0,0,-1,0,2045.9558)" />
    <linearGradient
       inkscape:collect="always"
       xlink:href="#linearGradient3649"
       id="linearGradient4006"
       gradientUnits="userSpaceOnUse"
       x1="25.829813"
       y1="945.73328"
       x2="99.169922"
       y2="1017.0289"
       gradientTransform="matrix(1,0,0,-1,0,1121.5936)" />
    <linearGradient
       inkscape:collect="always"
       xlink:href="#linearGradient3625"
       id="linearGradient4009"
       gradientUnits="userSpaceOnUse"
       gradientTransform="matrix(1,0,0,-1,0,1120.9216)"
       x1="97.5354"
       y1="16.064697"
       x2="95.231407"
       y2="12.032723" />
    <linearGradient
       inkscape:collect="always"
       xlink:href="#linearGradient3625"
       id="linearGradient4012"
       gradientUnits="userSpaceOnUse"
       gradientTransform="matrix(1,0,0,-1,0,1120.8256)"
       x1="35.61578"
       y1="11.840724"
       x2="28.895821"
       y2="15.872699" />
    <linearGradient
       inkscape:collect="always"
       xlink:href="#linearGradient3615"
       id="linearGradient4016"
       gradientUnits="userSpaceOnUse"
       x1="23.999851"
       y1="939.65887"
       x2="105.21535"
       y2="940.23486"
       gradientTransform="matrix(1,0,0,-1,0,2045.9558)" />
    <radialGradient
       inkscape:collect="always"
       xlink:href="#linearGradient3649"
       id="radialGradient4032"
       gradientUnits="userSpaceOnUse"
       gradientTransform="matrix(0.59482468,0,0,-0.49687712,26.179534,1552.2562)"
       cx="64.612862"
       cy="981.27051"
       fx="64.612862"
       fy="981.27051"
       r="43.595661" />
    <inkscape:perspective
       id="perspective3163"
       inkscape:persp3d-origin="0.5 : 0.33333333 : 1"
       inkscape:vp_z="1 : 0.5 : 1"
       inkscape:vp_y="0 : 1000 : 0"
       inkscape:vp_x="0 : 0.5 : 1"
       sodipodi:type="inkscape:persp3d" />
    <inkscape:perspective
       id="perspective3177"
       inkscape:persp3d-origin="0.5 : 0.33333333 : 1"
       inkscape:vp_z="1 : 0.5 : 1"
       inkscape:vp_y="0 : 1000 : 0"
       inkscape:vp_x="0 : 0.5 : 1"
       sodipodi:type="inkscape:persp3d" />
    <inkscape:perspective
       id="perspective3682"
       inkscape:persp3d-origin="0.5 : 0.33333333 : 1"
       inkscape:vp_z="1 : 0.5 : 1"
       inkscape:vp_y="0 : 1000 : 0"
       inkscape:vp_x="0 : 0.5 : 1"
       sodipodi:type="inkscape:persp3d" />
    <linearGradient
       id="linearGradient3615-3">
      <stop
         style="stop-color:#000000;stop-opacity:0.85840708;"
         offset="0"
         id="stop3617-6" />
      <stop
         id="stop3643-4"
         offset="0.13008417"
         style="stop-color:#000000;stop-opacity:0.52212387;" />
      <stop
         style="stop-color:#000000;stop-opacity:0.43529412;"
         offset="0.89478755"
         id="stop3645-7" />
      <stop
         style="stop-color:#000000;stop-opacity:0.60176992;"
         offset="1"
         id="stop3619-9" />
    </linearGradient>
    <linearGradient
       id="linearGradient3649-0">
      <stop
         style="stop-color:#ffffff;stop-opacity:1;"
         offset="0"
         id="stop3651-2" />
      <stop
         style="stop-color:#ffffff;stop-opacity:0;"
         offset="1"
         id="stop3653-1" />
    </linearGradient>
    <linearGradient
       inkscape:collect="always"
       id="linearGradient3679-6">
      <stop
         style="stop-color:#ffffff;stop-opacity:1;"
         offset="0"
         id="stop3681-5" />
      <stop
         style="stop-color:#ffffff;stop-opacity:0;"
         offset="1"
         id="stop3683-0" />
    </linearGradient>
    <radialGradient
       inkscape:collect="always"
       xlink:href="#linearGradient3649-0"
       id="radialGradient3978-0"
       gradientUnits="userSpaceOnUse"
       gradientTransform="matrix(0.59482468,0,0,0.49687712,26.179534,493.69964)"
       cx="64.612862"
       cy="981.27051"
       fx="64.612862"
       fy="981.27051"
       r="43.595661" />
    <linearGradient
       id="linearGradient3712">
      <stop
         style="stop-color:#ffffff;stop-opacity:1;"
         offset="0"
         id="stop3714" />
      <stop
         style="stop-color:#ffffff;stop-opacity:0;"
         offset="1"
         id="stop3716" />
    </linearGradient>
    <linearGradient
       inkscape:collect="always"
       xlink:href="#linearGradient3679-6"
       id="linearGradient3907"
       gradientUnits="userSpaceOnUse"
       gradientTransform="translate(0.09946,-924.334)"
       x1="89.855438"
       y1="944.45886"
       x2="-10.751933"
       y2="1020.8744" />
    <linearGradient
       inkscape:collect="always"
       xlink:href="#linearGradient3649"
       id="linearGradient3920"
       gradientUnits="userSpaceOnUse"
       x1="25.829813"
       y1="945.73328"
       x2="99.169922"
       y2="1017.0289"
       gradientTransform="matrix(1.0820085,0,0,1.0820085,-8.661681,-85.075742)" />
    <linearGradient
       inkscape:collect="always"
       xlink:href="#linearGradient3625"
       id="linearGradient3923"
       gradientUnits="userSpaceOnUse"
       gradientTransform="matrix(1.0820085,0,0,1.0820085,-8.6616808,915.8191)"
       x1="97.5354"
       y1="16.064697"
       x2="95.231407"
       y2="12.032723" />
    <linearGradient
       inkscape:collect="always"
       xlink:href="#linearGradient3625"
       id="linearGradient3926"
       gradientUnits="userSpaceOnUse"
       gradientTransform="matrix(1.0820085,0,0,1.0820085,-8.6616808,915.92298)"
       x1="35.61578"
       y1="11.840724"
       x2="28.895821"
       y2="15.872699" />
    <linearGradient
       inkscape:collect="always"
       xlink:href="#linearGradient3615"
       id="linearGradient3930"
       gradientUnits="userSpaceOnUse"
       x1="23.999851"
       y1="939.65887"
       x2="105.21535"
       y2="940.23486"
       gradientTransform="matrix(1.0820085,0,0,1.0820085,-8.6616808,-85.075742)" />
    <radialGradient
       inkscape:collect="always"
       xlink:href="#linearGradient3649"
       id="radialGradient3934"
       gradientUnits="userSpaceOnUse"
       gradientTransform="matrix(0.64360536,0,0,0.53762527,19.664798,449.11146)"
       cx="64.612862"
       cy="981.27051"
       fx="64.612862"
       fy="981.27051"
       r="43.595661" />
    <linearGradient
       inkscape:collect="always"
       xlink:href="#linearGradient3713"
       id="linearGradient3719"
       x1="29.09375"
       y1="108.18565"
       x2="29.09375"
       y2="128.70711"
       gradientUnits="userSpaceOnUse"
       gradientTransform="translate(0,2.7071068)" />
  </defs>
  <sodipodi:namedview
     id="base"
     pagecolor="#ffffff"
     bordercolor="#666666"
     borderopacity="1.0"
     inkscape:pageopacity="0.0"
     inkscape:pageshadow="2"
     inkscape:zoom="2.1796875"
     inkscape:cx="141.13262"
     inkscape:cy="48"
     inkscape:document-units="px"
     inkscape:current-layer="layer2"
     showgrid="false"
     inkscape:snap-global="true"
     inkscape:window-width="1920"
     inkscape:window-height="1029"
     inkscape:window-x="0"
     inkscape:window-y="27"
     inkscape:window-maximized="1" />
  <metadata
     id="metadata7">
    <rdf:RDF>
      <cc:Work
         rdf:about="">
        <dc:format>image/svg+xml</dc:format>
        <dc:type
           rdf:resource="http://purl.org/dc/dcmitype/StillImage" />
        <dc:title></dc:title>
      </cc:Work>
    </rdf:RDF>
  </metadata>
  <g
     inkscape:groupmode="layer"
     id="layer2"
     inkscape:label="Background"
     style="display:inline"
     transform="translate(0,-32)">
    <path
       style="fill:#233652;fill-opacity:1;stroke:none;display:inline"
       d="m 80.087546,33.812784 -64.6162,0.10138 c -2.930212,0.005 -6.121246,2.15188 -8.487007,4.53092 l -3.55034,3.55034 c -0.25624,0.25624 -0.512429,0.49701 -0.743881,0.77769 -0.229032,0.2778 -0.436599,0.57382 -0.642443,0.87913 -3.1e-4,4.8e-4 -0.101232,0.16851 -0.101438,0.16907 -0.0032,0.006 -2.9e-5,0.034 0,0.0337 -0.03833,0.0565 -0.09223,0.0998 -0.135251,0.16907 l 0.03381,0 c -0.237241,0.37992 -0.501378,0.76589 -0.710068,1.21726 a 0.81687265,0.81687265 0 0 0 0,0.0338 c -0.04713,0.10268 -0.0865,0.18856 -0.135251,0.30431 -0.585052,1.37673 -0.879133,2.89002 -0.879133,4.46329 a 0.81687265,0.81687265 0 0 0 0,0.0337 l 3.584154,65.664276 c 0.0231,0.345 0.04828,0.6943 0.101438,1.0483 0.04897,0.3266 0.106243,0.6326 0.169064,0.9129 0.04235,0.1855 0.06023,0.2134 0.03381,0.1017 0.01512,0.065 0.05987,0.1038 0.06763,0.1352 0.06843,0.2771 0.10766,0.6291 0.23669,1.0144 0.07796,0.2345 0.145307,0.3761 0.169063,0.4395 0.06697,0.1782 0.159584,0.3612 0.23669,0.541 0.0287,0.067 0.05578,0.1701 0.101438,0.2705 0.233123,0.5132 0.512565,0.9779 0.811506,1.454 0.637696,1.0178 1.393865,1.9586 2.299269,2.7388 0.03542,0.031 0.03743,0.013 0.06762,0.034 0.01182,0.011 0.02288,-0.011 0.03381,0 0.333033,0.2823 0.686015,0.5855 1.082009,0.8453 0.151671,0.1006 0.224597,0.1277 0.23669,0.1353 0.326951,0.2022 0.710186,0.4176 1.115823,0.6086 -0.0035,0 0.01771,0.011 0.06762,0.034 a 0.81687265,0.81687265 0 0 0 0,0.034 c 0.449823,0.2076 0.920178,0.3915 1.420137,0.541 0.0015,4e-4 0.01836,0.011 0.101438,0.034 0.421699,0.1211 0.821223,0.1459 1.149634,0.2029 0.321682,0.055 0.664198,0.1409 1.048196,0.169 0.248008,0.017 0.525247,0.034 0.811506,0.034 l 66.036336,0 c 0.36653,0 0.746791,-4e-4 1.149634,-0.034 0.411747,-0.039 0.790104,-0.1399 1.115821,-0.2029 0.347877,-0.067 0.714591,-0.1267 1.082008,-0.2366 4.518077,-1.3513 7.528047,-5.4994 8.013637,-10.8201 a 0.81687265,0.81687265 0 0 0 0,-0.034 l 3.61797,-65.664316 a 0.81687265,0.81687265 0 0 0 0,-0.0338 c 0,-0.41279 -0.031,-0.82057 -0.0676,-1.18345 -0.0404,-0.39545 -0.0946,-0.75593 -0.16906,-1.11582 -0.0147,-0.0721 -0.0544,-0.21143 -0.10139,-0.40575 -0.0456,-0.18569 -0.0769,-0.27131 -0.0676,-0.23669 -0.0655,-0.24888 -0.12147,-0.46876 -0.20288,-0.71007 -0.0435,-0.12922 -0.0778,-0.23985 -0.10138,-0.30432 -0.0516,-0.1378 -0.12783,-0.29757 -0.20288,-0.47338 -0.0487,-0.11403 -0.063,-0.13599 -0.0338,-0.0676 -0.0484,-0.11514 -0.0608,-0.12964 -0.0338,-0.0676 0.001,0.003 -0.0292,-0.0807 -0.0676,-0.16906 -0.002,-0.005 0.003,-0.0275 0,-0.0338 -0.0298,-0.0678 -0.0683,-0.16985 -0.13525,-0.30431 -0.01,-0.0192 -0.0202,-0.0407 -0.0338,-0.0676 a 0.81687265,0.81687265 0 0 0 -0.0338,0 c -0.0705,-0.13746 -0.0391,-0.12058 -0.0338,-0.10138 -0.002,-0.005 8e-5,-0.0336 0,-0.0338 a 0.81687265,0.81687265 0 0 0 -0.0338,0 0.81687265,0.81687265 0 0 0 0,-0.0338 c -0.008,-0.0139 -0.0221,-0.0512 -0.0676,-0.13525 -0.0873,-0.16094 -0.15014,-0.28289 -0.20288,-0.37194 -0.0795,-0.13452 -0.12423,-0.18521 -0.13525,-0.20288 -0.0624,-0.10009 -0.13653,-0.18723 -0.16907,-0.23669 -0.0177,-0.0265 -0.0368,-0.0564 -0.0676,-0.10138 -0.0446,-0.0661 -0.131,-0.21638 -0.2705,-0.40576 -0.0822,-0.11155 -0.16223,-0.29386 -0.33813,-0.50719 -0.14366,-0.1745 -0.23955,-0.21157 -0.20288,-0.16906 -0.18,-0.20852 -0.35858,-0.42566 -0.541,-0.60863 l -0.0338,-0.0338 -3.1784,-3.48271 c -1.52328,-1.66275 -3.99838,-3.18916 -6.45825,-4.02372 l 0,-0.0338 -0.101384,-0.0676 a 0.81687265,0.81687265 0 0 0 -0.338128,-0.10138 c -0.07855,-0.0235 -0.158157,-0.0116 -0.236689,-0.0338 -0.778073,-0.22014 -1.557346,-0.40701 -2.333081,-0.40575 z"
       id="path3687"
       inkscape:connector-curvature="0" />
  </g>
  <g
     inkscape:label="Gleam"
     inkscape:groupmode="layer"
     id="layer1"
     transform="translate(0,-956.36218)"
     style="display:inline"
     sodipodi:insensitive="true">
    <g
       id="g3951"
       transform="translate(-13.167765,30.539224)">
      <path
         sodipodi:nodetypes="ccccccccc"
         id="path3720"
         d="m 24.63687,933.28566 73.226225,0 c 5.849005,0 10.557765,4.7088 10.557765,10.55781 l -3.59979,65.64763 c -0.56839,6.2279 -4.70876,10.5578 -10.557763,10.5578 l -66.02665,0 c -5.849002,0 -10.178841,-4.8983 -10.557767,-10.5578 l -3.599787,-65.64763 c 0,-5.84901 4.708764,-10.55781 10.557767,-10.55781 z"
         style="opacity:0.42051284;fill:url(#radialGradient3934);fill-opacity:1;stroke:none"
         inkscape:connector-curvature="0" />
      <path
         sodipodi:nodetypes="ccccccccc"
         id="rect3602"
         d="m 24.63687,933.28566 73.226225,0 c 5.849005,0 10.557765,4.7088 10.557765,10.55781 l -3.59979,65.64763 c -0.56839,6.2279 -4.70876,10.5578 -10.557762,10.5578 l -66.026651,0 c -5.849002,0 -10.178841,-4.8983 -10.557767,-10.5578 l -3.599787,-65.64763 c 0,-5.84901 4.708764,-10.55781 10.557767,-10.55781 z"
         style="fill:none;stroke:#2e3436;stroke-width:1.633582;stroke-linejoin:round;stroke-miterlimit:4;stroke-opacity:0.46242778;stroke-dashoffset:0"
         inkscape:connector-curvature="0" />
      <path
         style="opacity:0.67179488;fill:url(#linearGradient3930);fill-opacity:1;stroke:none"
         d="m 24.63687,933.28566 73.226225,0 c 2.924505,0 5.563945,1.17721 7.472255,3.08552 l -3.22161,-3.51653 c -1.97653,-2.1575 -5.935524,-4.40337 -8.861521,-4.39866 l -64.633531,0.10387 c -2.500819,0.004 -5.642532,1.96718 -7.908398,4.24576 l -3.54568,3.56556 c 1.908317,-1.90831 4.547759,-3.08552 7.47226,-3.08552 z"
         id="path3605"
         sodipodi:nodetypes="cccsssscc"
         inkscape:connector-curvature="0" />
      <path
         sodipodi:nodetypes="cssssc"
         id="path3607"
         d="m 105.33535,936.37118 -3.22161,-3.51653 c -1.97653,-2.1575 -5.935524,-4.40337 -8.861521,-4.39866 l -64.633531,0.10387 c -2.500819,0.004 -5.642532,1.96718 -7.908398,4.24576 l -3.54568,3.56556"
         style="fill:none;stroke:#2e3436;stroke-width:1.633582;stroke-linejoin:round;stroke-miterlimit:4;stroke-opacity:0.46242778;stroke-dashoffset:0"
         inkscape:connector-curvature="0" />
      <path
         sodipodi:nodetypes="ccccc"
         id="path3613"
         d="m 28.524556,928.63087 3.84327,0 -4.570376,3.84327 c 0,0 -3.947142,0 -5.193608,0.62323 l 5.920714,-4.4665 z"
         style="opacity:0.75897438;fill:url(#linearGradient3926);fill-opacity:1;stroke:none"
         inkscape:connector-curvature="0" />
      <path
         id="path3623"
         d="m 91.47109,928.83861 4.258759,0 4.985861,4.15489 -4.4665,0 -4.77812,-4.15489 z"
         style="opacity:0.67179488;fill:url(#linearGradient3923);fill-opacity:1;stroke:none"
         inkscape:connector-curvature="0" />
      <path
         style="opacity:0.47179488;fill:url(#linearGradient3920);fill-opacity:1;stroke:none"
         d="m 24.63687,933.28566 73.226225,0 c 5.849005,0 10.557765,4.7088 10.557765,10.55781 l -3.59979,65.64763 c -0.56839,6.2279 -4.70876,10.5578 -10.557762,10.5578 l -66.026651,0 c -5.849002,0 -10.178841,-4.8983 -10.557767,-10.5578 l -3.599787,-65.64763 c 0,-5.84901 4.708764,-10.55781 10.557767,-10.55781 z"
         id="path3647"
         sodipodi:nodetypes="ccccccccc"
         inkscape:connector-curvature="0" />
    </g>
  </g>
  <g
     inkscape:groupmode="layer"
     id="layer3"
     inkscape:label="Logo"
     style="display:inline"
     transform="translate(0,-32)">
    <path
       style="fill:#ffffff;fill-opacity:1;stroke:none"
       d="m 36.546616,63.755028 c 0.02644,5.15934 4.866763,9.274665 5.02351,13.197784 0.149257,3.734141 -2.902191,9.361619 -2.961894,14.217257 -0.04296,3.466613 1.266756,7.987283 0.994679,9.817031 -0.306445,2.06106 2.948565,9.93081 2.993067,12.73562 0.04296,2.70392 -6.699924,4.70881 -5.018003,6.59385 1.603712,1.79769 8.302865,-3.49217 8.27775,-4.79792 -0.03084,-1.60228 -1.195817,-2.46852 -1.176981,-3.10862 0.03635,-1.25034 1.171473,-8.98559 -0.502406,-11.6797 2.743461,-4.436401 2.856147,-12.941396 3.76766,-12.935558 0.758622,0 4.511191,10.570467 6.656193,11.805287 -0.611347,2.568531 2.270687,9.659281 2.328407,12.191141 0.02093,0.90545 -1.200774,0.7834 -1.103619,2.76494 0.07821,1.59633 5.771557,8.35519 7.205193,6.02821 1.166076,-1.89242 -3.466283,-4.50855 -3.563217,-6.525 -0.0749,-1.56835 0.843769,-11.82874 0.533579,-16.594279 -0.519369,-7.976813 -6.833759,-15.641123 -7.064088,-19.659623 -0.279347,-4.872326 5.49926,-10.310352 5.792597,-13.872589 4.116844,-0.0944 11.004358,-4.574892 10.910618,-6.436163 -0.138132,-2.743748 -6.849621,-9.215656 -8.990107,-9.215656 -2.762959,0 -4.754408,1.819722 -3.48534,2.915145 1.021335,0.881585 2.156128,-0.570183 3.537552,-0.570183 1.381534,0 4.343318,4.327776 4.071131,6.451739 -1.072556,0.612372 -2.187631,-0.630943 -3.537552,-0.570172 -1.101526,0.04968 -1.663635,1.038772 -2.674065,0.989127 -0.918012,-0.04516 -1.911809,-0.858067 -2.830812,-0.847966 -1.127082,0.01234 -2.073183,1.748177 -2.888533,1.84716 -0.732405,0.08889 -3.017741,-1.192457 -3.13968,-3.18644 -0.06829,-1.115075 0.885076,-2.726696 0.975511,-4.472715 0.109051,-2.10028 -0.827576,-4.454605 -3.665108,-4.434007 -2.746546,0.01994 -3.162592,2.599636 -3.176361,4.500088 -0.01542,2.150576 1.308062,2.895031 1.308062,4.427728 0,1.799442 -1.433636,3.155289 -2.564023,3.155289 -1.130276,0 -1.539162,-1.931559 -3.166227,-1.910443 -1.071455,0.01399 -1.750986,0.8389 -2.595196,0.86906 -0.782524,0.02798 -1.397066,-1.031326 -2.705238,-0.994656 -1.136776,0.03183 -2.432831,1.099147 -4.044475,0.83239 -0.366698,-2.311861 3.083062,-6.72777 4.060116,-6.6617 2.119117,0.143297 2.48273,3.226535 3.893235,1.88383 1.167397,-1.111308 -1.721576,-4.061019 -3.872196,-4.076595 -1.900463,-0.01377 -9.239492,6.838022 -9.016764,9.471386 0.236278,2.791554 7.611768,7.022065 11.413025,5.855923 z"
       id="path3856"
       inkscape:connector-curvature="0"
       sodipodi:nodetypes="cssssssscscsssssscsssscssssssssssssscssssc" />
  </g>
  <g
     inkscape:groupmode="layer"
     id="layer5"
     inkscape:label="Top Gleam"
     style="display:inline"
     transform="translate(0,-32)"
     sodipodi:insensitive="true">
    <g
       id="g3889"
       transform="matrix(1.0820085,0,0,1.0820085,-21.829446,21.268995)">
      <path
         id="path3657-8"
         d="m 30.88071,16.84068 c -5.40569,0 -9.75,4.3443 -9.75,9.75 l 3.3125,60.6875 c 0.16364,2.44413 1.12734,4.72197 2.65625,6.46875 -0.34488,-0.960229 -0.55488,-1.983907 -0.625,-3.03125 l -3.3125,-60.65625 c 0,-5.4057 4.34431,-9.75 9.75,-9.75 l 67.6875,0 c 2.85569,0 5.40623,1.213438 7.1875,3.15625 -1.3012,-3.856641 -4.94337,-6.625 -9.25,-6.625 l -67.65625,0 z"
         style="opacity:0.70256413;fill:#eeeeec;fill-opacity:1;stroke:none"
         inkscape:connector-curvature="0" />
      <path
         id="path3662-9"
         d="m 104.44321,18.84068 c 0.67976,1.33197 1.09375,2.834 1.09375,4.4375 l -3.34375,60.6875 c -0.52531,5.7559 -4.34431,9.75 -9.75,9.75 l -61.03125,0 c -2.15903,0 -4.08835,-0.736805 -5.65625,-1.9375 1.65116,3.069326 4.69625,5.25 8.4375,5.25 l 61.03125,0 c 5.40569,0 9.22469,-3.9941 9.75,-9.75 l 3.34375,-60.6875 c 0,-3.178101 -1.53679,-5.970593 -3.875,-7.75 z"
         style="opacity:0.42051284;fill:#eeeeec;fill-opacity:1;stroke:none"
         inkscape:connector-curvature="0" />
      <path
         sodipodi:nodetypes="ccscccc"
         id="path3667-5"
         d="m 30.87422,16.8429 67.6762,0 c 2.70285,0 5.14224,1.08798 6.90591,2.85166 0.88184,0.88185 1.59475,1.93262 2.08721,3.10079 C 64.17192,23.55126 28.94023,54.23257 24.4436,87.2725 l -3.32695,-60.672 c 0,-5.4057 4.35188,-9.7576 9.75757,-9.7576 z"
         style="opacity:0.56074769;fill:url(#linearGradient3907);fill-opacity:1;stroke:none"
         inkscape:connector-curvature="0" />
      <path
         id="path3669-0"
         d="m 31.86815,17.51656 15.20553,0 -1.90069,78.60714 -10.31803,0 -2.98681,-78.60714 z"
         style="opacity:0.13551402;fill:#ffffff;fill-opacity:1;stroke:none"
         inkscape:connector-curvature="0" />
    </g>
  </g>
</svg>
