<?xml version="1.0" encoding="UTF-8" standalone="no"?>
<!-- Created with Inkscape (http://www.inkscape.org/) -->

<svg
   xmlns:dc="http://purl.org/dc/elements/1.1/"
   xmlns:cc="http://creativecommons.org/ns#"
   xmlns:rdf="http://www.w3.org/1999/02/22-rdf-syntax-ns#"
   xmlns:svg="http://www.w3.org/2000/svg"
   xmlns="http://www.w3.org/2000/svg"
   xmlns:xlink="http://www.w3.org/1999/xlink"
   xmlns:sodipodi="http://sodipodi.sourceforge.net/DTD/sodipodi-0.dtd"
   xmlns:inkscape="http://www.inkscape.org/namespaces/inkscape"
   width="96"
   height="96"
   id="svg2"
   version="1.1"
   inkscape:version="0.48.3.1 r9886"
   sodipodi:docname="instructor.svg"
   inkscape:export-filename="instructor.png"
   inkscape:export-xdpi="90"
   inkscape:export-ydpi="90">
  <defs
     id="defs4">
    <linearGradient
       inkscape:collect="always"
       id="linearGradient3713">
      <stop
         style="stop-color:#ffffff;stop-opacity:1;"
         offset="0"
         id="stop3715" />
      <stop
         style="stop-color:#ffffff;stop-opacity:0;"
         offset="1"
         id="stop3717" />
    </linearGradient>
    <linearGradient
       id="linearGradient4044">
      <stop
         id="stop4046"
         offset="0"
         style="stop-color:#ffffff;stop-opacity:1;" />
      <stop
         id="stop4048"
         offset="1"
         style="stop-color:#ffffff;stop-opacity:0;" />
    </linearGradient>
    <linearGradient
       id="linearGradient3988">
      <stop
         style="stop-color:#000000;stop-opacity:1;"
         offset="0"
         id="stop3990" />
      <stop
         style="stop-color:#000000;stop-opacity:0;"
         offset="1"
         id="stop3992" />
    </linearGradient>
    <linearGradient
       inkscape:collect="always"
       id="linearGradient3679">
      <stop
         style="stop-color:#ffffff;stop-opacity:1;"
         offset="0"
         id="stop3681" />
      <stop
         style="stop-color:#ffffff;stop-opacity:0;"
         offset="1"
         id="stop3683" />
    </linearGradient>
    <linearGradient
       id="linearGradient3649">
      <stop
         style="stop-color:#ffffff;stop-opacity:1;"
         offset="0"
         id="stop3651" />
      <stop
         style="stop-color:#ffffff;stop-opacity:0;"
         offset="1"
         id="stop3653" />
    </linearGradient>
    <linearGradient
       inkscape:collect="always"
       id="linearGradient3625">
      <stop
         style="stop-color:#ffffff;stop-opacity:1;"
         offset="0"
         id="stop3627" />
      <stop
         style="stop-color:#ffffff;stop-opacity:0;"
         offset="1"
         id="stop3629" />
    </linearGradient>
    <linearGradient
       id="linearGradient3615">
      <stop
         style="stop-color:#000000;stop-opacity:0.85840708;"
         offset="0"
         id="stop3617" />
      <stop
         id="stop3643"
         offset="0.13008417"
         style="stop-color:#000000;stop-opacity:0.52212387;" />
      <stop
         style="stop-color:#000000;stop-opacity:0.43529412;"
         offset="0.89478755"
         id="stop3645" />
      <stop
         style="stop-color:#000000;stop-opacity:0.60176992;"
         offset="1"
         id="stop3619" />
    </linearGradient>
    <inkscape:perspective
       sodipodi:type="inkscape:persp3d"
       inkscape:vp_x="0 : 526.18109 : 1"
       inkscape:vp_y="0 : 1000 : 0"
       inkscape:vp_z="744.09448 : 526.18109 : 1"
       inkscape:persp3d-origin="372.04724 : 350.78739 : 1"
       id="perspective10" />
    <inkscape:perspective
       id="perspective2824"
       inkscape:persp3d-origin="0.5 : 0.33333333 : 1"
       inkscape:vp_z="1 : 0.5 : 1"
       inkscape:vp_y="0 : 1000 : 0"
       inkscape:vp_x="0 : 0.5 : 1"
       sodipodi:type="inkscape:persp3d" />
    <inkscape:perspective
       id="perspective3746"
       inkscape:persp3d-origin="0.5 : 0.33333333 : 1"
       inkscape:vp_z="1 : 0.5 : 1"
       inkscape:vp_y="0 : 1000 : 0"
       inkscape:vp_x="0 : 0.5 : 1"
       sodipodi:type="inkscape:persp3d" />
    <inkscape:perspective
       id="perspective3768"
       inkscape:persp3d-origin="0.5 : 0.33333333 : 1"
       inkscape:vp_z="1 : 0.5 : 1"
       inkscape:vp_y="0 : 1000 : 0"
       inkscape:vp_x="0 : 0.5 : 1"
       sodipodi:type="inkscape:persp3d" />
    <linearGradient
       inkscape:collect="always"
       xlink:href="#linearGradient3615"
       id="linearGradient3954"
       gradientUnits="userSpaceOnUse"
       x1="23.999851"
       y1="939.65887"
       x2="105.21535"
       y2="940.23486" />
    <linearGradient
       inkscape:collect="always"
       xlink:href="#linearGradient3625"
       id="linearGradient3956"
       gradientUnits="userSpaceOnUse"
       gradientTransform="translate(0,925.13018)"
       x1="35.61578"
       y1="11.840724"
       x2="28.895821"
       y2="15.872699" />
    <linearGradient
       inkscape:collect="always"
       xlink:href="#linearGradient3625"
       id="linearGradient3958"
       gradientUnits="userSpaceOnUse"
       gradientTransform="translate(0,925.03418)"
       x1="97.5354"
       y1="16.064697"
       x2="95.231407"
       y2="12.032723" />
    <linearGradient
       inkscape:collect="always"
       xlink:href="#linearGradient3649"
       id="linearGradient3960"
       gradientUnits="userSpaceOnUse"
       x1="25.829813"
       y1="945.73328"
       x2="99.169922"
       y2="1017.0289" />
    <linearGradient
       inkscape:collect="always"
       xlink:href="#linearGradient3679"
       id="linearGradient3962"
       gradientUnits="userSpaceOnUse"
       x1="89.855438"
       y1="944.45886"
       x2="-10.751933"
       y2="1020.8744" />
    <radialGradient
       inkscape:collect="always"
       xlink:href="#linearGradient3649"
       id="radialGradient3964"
       gradientUnits="userSpaceOnUse"
       gradientTransform="matrix(0.59482468,0,0,0.49687712,26.179534,493.69964)"
       cx="64.612862"
       cy="981.27051"
       fx="64.612862"
       fy="981.27051"
       r="43.595661" />
    <linearGradient
       inkscape:collect="always"
       xlink:href="#linearGradient3988"
       id="linearGradient3994"
       x1="22.588236"
       y1="100.15868"
       x2="22.770535"
       y2="125.23379"
       gradientUnits="userSpaceOnUse" />
    <radialGradient
       inkscape:collect="always"
       xlink:href="#linearGradient3649"
       id="radialGradient3997"
       gradientUnits="userSpaceOnUse"
       gradientTransform="matrix(0.59482468,0,0,-0.49687712,26.179534,627.89402)"
       cx="64.612862"
       cy="981.27051"
       fx="64.612862"
       fy="981.27051"
       r="43.595661" />
    <linearGradient
       inkscape:collect="always"
       xlink:href="#linearGradient3679"
       id="linearGradient4001"
       gradientUnits="userSpaceOnUse"
       x1="89.855438"
       y1="944.45886"
       x2="-10.751933"
       y2="1020.8744"
       gradientTransform="matrix(1,0,0,-1,0,2045.9558)" />
    <linearGradient
       inkscape:collect="always"
       xlink:href="#linearGradient3649"
       id="linearGradient4006"
       gradientUnits="userSpaceOnUse"
       x1="25.829813"
       y1="945.73328"
       x2="99.169922"
       y2="1017.0289"
       gradientTransform="matrix(1,0,0,-1,0,1121.5936)" />
    <linearGradient
       inkscape:collect="always"
       xlink:href="#linearGradient3625"
       id="linearGradient4009"
       gradientUnits="userSpaceOnUse"
       gradientTransform="matrix(1,0,0,-1,0,1120.9216)"
       x1="97.5354"
       y1="16.064697"
       x2="95.231407"
       y2="12.032723" />
    <linearGradient
       inkscape:collect="always"
       xlink:href="#linearGradient3625"
       id="linearGradient4012"
       gradientUnits="userSpaceOnUse"
       gradientTransform="matrix(1,0,0,-1,0,1120.8256)"
       x1="35.61578"
       y1="11.840724"
       x2="28.895821"
       y2="15.872699" />
    <linearGradient
       inkscape:collect="always"
       xlink:href="#linearGradient3615"
       id="linearGradient4016"
       gradientUnits="userSpaceOnUse"
       x1="23.999851"
       y1="939.65887"
       x2="105.21535"
       y2="940.23486"
       gradientTransform="matrix(1,0,0,-1,0,2045.9558)" />
    <radialGradient
       inkscape:collect="always"
       xlink:href="#linearGradient3649"
       id="radialGradient4032"
       gradientUnits="userSpaceOnUse"
       gradientTransform="matrix(0.59482468,0,0,-0.49687712,26.179534,1552.2562)"
       cx="64.612862"
       cy="981.27051"
       fx="64.612862"
       fy="981.27051"
       r="43.595661" />
    <inkscape:perspective
       id="perspective3163"
       inkscape:persp3d-origin="0.5 : 0.33333333 : 1"
       inkscape:vp_z="1 : 0.5 : 1"
       inkscape:vp_y="0 : 1000 : 0"
       inkscape:vp_x="0 : 0.5 : 1"
       sodipodi:type="inkscape:persp3d" />
    <inkscape:perspective
       id="perspective3177"
       inkscape:persp3d-origin="0.5 : 0.33333333 : 1"
       inkscape:vp_z="1 : 0.5 : 1"
       inkscape:vp_y="0 : 1000 : 0"
       inkscape:vp_x="0 : 0.5 : 1"
       sodipodi:type="inkscape:persp3d" />
    <inkscape:perspective
       id="perspective3682"
       inkscape:persp3d-origin="0.5 : 0.33333333 : 1"
       inkscape:vp_z="1 : 0.5 : 1"
       inkscape:vp_y="0 : 1000 : 0"
       inkscape:vp_x="0 : 0.5 : 1"
       sodipodi:type="inkscape:persp3d" />
    <linearGradient
       id="linearGradient3615-3">
      <stop
         style="stop-color:#000000;stop-opacity:0.85840708;"
         offset="0"
         id="stop3617-6" />
      <stop
         id="stop3643-4"
         offset="0.13008417"
         style="stop-color:#000000;stop-opacity:0.52212387;" />
      <stop
         style="stop-color:#000000;stop-opacity:0.43529412;"
         offset="0.89478755"
         id="stop3645-7" />
      <stop
         style="stop-color:#000000;stop-opacity:0.60176992;"
         offset="1"
         id="stop3619-9" />
    </linearGradient>
    <linearGradient
       id="linearGradient3649-0">
      <stop
         style="stop-color:#ffffff;stop-opacity:1;"
         offset="0"
         id="stop3651-2" />
      <stop
         style="stop-color:#ffffff;stop-opacity:0;"
         offset="1"
         id="stop3653-1" />
    </linearGradient>
    <linearGradient
       inkscape:collect="always"
       id="linearGradient3679-6">
      <stop
         style="stop-color:#ffffff;stop-opacity:1;"
         offset="0"
         id="stop3681-5" />
      <stop
         style="stop-color:#ffffff;stop-opacity:0;"
         offset="1"
         id="stop3683-0" />
    </linearGradient>
    <radialGradient
       inkscape:collect="always"
       xlink:href="#linearGradient3649-0"
       id="radialGradient3978-0"
       gradientUnits="userSpaceOnUse"
       gradientTransform="matrix(0.59482468,0,0,0.49687712,26.179534,493.69964)"
       cx="64.612862"
       cy="981.27051"
       fx="64.612862"
       fy="981.27051"
       r="43.595661" />
    <linearGradient
       id="linearGradient3712">
      <stop
         style="stop-color:#ffffff;stop-opacity:1;"
         offset="0"
         id="stop3714" />
      <stop
         style="stop-color:#ffffff;stop-opacity:0;"
         offset="1"
         id="stop3716" />
    </linearGradient>
    <linearGradient
       inkscape:collect="always"
       xlink:href="#linearGradient3679-6"
       id="linearGradient3907"
       gradientUnits="userSpaceOnUse"
       gradientTransform="translate(0.09946,-924.334)"
       x1="89.855438"
       y1="944.45886"
       x2="-10.751933"
       y2="1020.8744" />
    <linearGradient
       inkscape:collect="always"
       xlink:href="#linearGradient3649"
       id="linearGradient3920"
       gradientUnits="userSpaceOnUse"
       x1="25.829813"
       y1="945.73328"
       x2="99.169922"
       y2="1017.0289"
       gradientTransform="matrix(1.0820085,0,0,1.0820085,-8.661681,-85.075742)" />
    <linearGradient
       inkscape:collect="always"
       xlink:href="#linearGradient3625"
       id="linearGradient3923"
       gradientUnits="userSpaceOnUse"
       gradientTransform="matrix(1.0820085,0,0,1.0820085,-8.6616808,915.8191)"
       x1="97.5354"
       y1="16.064697"
       x2="95.231407"
       y2="12.032723" />
    <linearGradient
       inkscape:collect="always"
       xlink:href="#linearGradient3625"
       id="linearGradient3926"
       gradientUnits="userSpaceOnUse"
       gradientTransform="matrix(1.0820085,0,0,1.0820085,-8.6616808,915.92298)"
       x1="35.61578"
       y1="11.840724"
       x2="28.895821"
       y2="15.872699" />
    <linearGradient
       inkscape:collect="always"
       xlink:href="#linearGradient3615"
       id="linearGradient3930"
       gradientUnits="userSpaceOnUse"
       x1="23.999851"
       y1="939.65887"
       x2="105.21535"
       y2="940.23486"
       gradientTransform="matrix(1.0820085,0,0,1.0820085,-8.6616808,-85.075742)" />
    <radialGradient
       inkscape:collect="always"
       xlink:href="#linearGradient3649"
       id="radialGradient3934"
       gradientUnits="userSpaceOnUse"
       gradientTransform="matrix(0.64360536,0,0,0.53762527,19.664798,449.11146)"
       cx="64.612862"
       cy="981.27051"
       fx="64.612862"
       fy="981.27051"
       r="43.595661" />
    <linearGradient
       inkscape:collect="always"
       xlink:href="#linearGradient3713"
       id="linearGradient3719"
       x1="29.09375"
       y1="108.18565"
       x2="29.09375"
       y2="128.70711"
       gradientUnits="userSpaceOnUse"
       gradientTransform="translate(0,2.7071068)" />
  </defs>
  <sodipodi:namedview
     id="base"
     pagecolor="#ffffff"
     bordercolor="#666666"
     borderopacity="1.0"
     inkscape:pageopacity="0.0"
     inkscape:pageshadow="2"
     inkscape:zoom="5.6568542"
     inkscape:cx="48"
     inkscape:cy="48"
     inkscape:document-units="px"
     inkscape:current-layer="layer3"
     showgrid="false"
     inkscape:snap-global="true"
     inkscape:window-width="1920"
     inkscape:window-height="1056"
     inkscape:window-x="1920"
     inkscape:window-y="0"
     inkscape:window-maximized="1" />
  <metadata
     id="metadata7">
    <rdf:RDF>
      <cc:Work
         rdf:about="">
        <dc:format>image/svg+xml</dc:format>
        <dc:type
           rdf:resource="http://purl.org/dc/dcmitype/StillImage" />
        <dc:title></dc:title>
      </cc:Work>
    </rdf:RDF>
  </metadata>
  <g
     inkscape:groupmode="layer"
     id="layer3"
     inkscape:label="Logo"
     style="display:inline"
     transform="translate(0,-32)">
    <path
       style="fill:#d3d7cf;fill-opacity:1;stroke:none"
       d="m 49.985066,39.046683 c 0.692522,1.021585 0.968594,2.385119 0.902948,3.649414 -0.108871,2.102085 -1.286147,4.037591 -1.20393,5.380063 0.06484,1.060273 0.658912,1.938637 1.354421,2.595975 -0.551645,-0.617179 -0.998386,-1.394761 -1.053439,-2.294992 -0.08222,-1.342473 1.095053,-3.277978 1.203931,-5.380064 0.07334,-1.412523 -0.312072,-2.89873 -1.203931,-3.950396 z m -15.049128,2.859335 c 0.924947,1.021589 1.385076,2.146048 0.714834,2.784088 -0.617674,0.587984 -1.096004,0.470461 -1.542536,0.07525 0.553649,0.609261 1.088032,0.94491 1.843518,0.225737 0.73961,-0.704073 0.108137,-1.992482 -1.015816,-3.085071 z m -3.988019,0.526719 c -1.176305,-0.07954 -5.332445,5.230342 -4.890966,8.013661 0.0891,0.01475 0.175835,-0.0083 0.263359,0 -0.137687,-2.845458 3.791647,-7.78956 4.92859,-7.712678 0.637817,0.04312 1.153812,0.292585 1.580158,0.639588 -0.491164,-0.482894 -1.073239,-0.88594 -1.881141,-0.940571 z m 31.979398,0 c -1.632802,0 -2.964002,1.657717 -4.176133,0.714834 0.06555,0.08849 0.130244,0.180934 0.225736,0.26336 1.229617,1.061366 2.588241,-0.677211 4.251379,-0.677211 0.394839,0 0.935564,0.308041 1.46729,0.790079 -0.64298,-0.654538 -1.298319,-1.091062 -1.768272,-1.091062 z m 7.976038,3.310808 c 1.580597,1.853518 2.721725,3.727482 2.784088,4.966213 0.112857,2.24084 -8.173971,7.63665 -13.130364,7.750301 -0.353157,4.288685 -7.296536,10.838591 -6.960222,16.704532 0.2773,4.837994 7.877474,14.061228 8.502758,23.66475 0.373447,5.737359 -0.729763,18.089509 -0.639588,19.977699 0.04816,1.00169 1.035819,2.09995 2.069255,3.23556 -0.923402,-1.02941 -1.72451,-2.0242 -1.768273,-2.93458 -0.09017,-1.88818 1.013035,-14.24034 0.639588,-19.977705 C 61.775313,89.526801 54.17514,80.303567 53.89784,75.465574 53.561525,69.599633 60.504904,63.049726 60.858061,58.761041 65.814455,58.64739 74.101282,53.251581 73.988426,51.01074 73.922486,49.701046 72.621151,47.699015 70.903355,45.743545 z m -49.022536,8.277021 c 2.693046,2.780082 8.466604,5.461353 12.00168,4.589984 -0.0053,-0.1245 -0.03698,-0.250711 -0.03762,-0.376228 -3.380738,1.037136 -9.086469,-1.477285 -11.964057,-4.213756 z m 25.696387,33.145705 c -1.097398,-0.007 -1.211803,10.23473 -4.514739,15.575819 2.015234,3.24352 0.645728,12.56562 0.601966,14.07094 -0.02268,0.77063 1.354915,1.83325 1.392044,3.76228 0.02947,1.53235 -7.606885,7.56723 -9.781933,5.86916 0.04114,0.0637 0.05629,0.1247 0.112868,0.18812 1.930757,2.16429 10.000284,-4.18426 9.970047,-5.7563 -0.03713,-1.92903 -1.414721,-2.99164 -1.392044,-3.76228 0.04376,-1.50532 1.413269,-10.82741 -0.601965,-14.07093 3.302936,-5.341096 3.41734,-15.582855 4.514738,-15.575827 0.01757,0 0.05506,0.02838 0.07525,0.03762 -0.140502,-0.196326 -0.292301,-0.338605 -0.376228,-0.338605 z m 7.59981,13.882799 c 0.137083,0.15512 0.283978,0.26532 0.413851,0.37623 0.0025,-0.0113 -0.0026,-0.0264 0,-0.0376 -0.134688,-0.0775 -0.269421,-0.20332 -0.413851,-0.3386 z m 8.991854,21.74599 c 1.233362,1.37566 2.282095,2.73598 1.580158,3.87515 -0.755124,1.22566 -2.490975,0.35902 -4.213756,-1.16631 1.818339,1.69096 3.715387,2.76474 4.514739,1.46729 0.754744,-1.22487 -0.533706,-2.69518 -1.881141,-4.17613 z"
       id="path3986"
       inkscape:connector-curvature="0" />
    <path
       sodipodi:type="star"
       style="color:#000000;fill:#204a87;fill-opacity:1;fill-rule:nonzero;stroke:none;stroke-width:4.78901482;marker:none;visibility:visible;display:inline;overflow:visible;enable-background:accumulate"
       id="path3978"
       sodipodi:sides="11"
       sodipodi:cx="19.154121"
       sodipodi:cy="25.34767"
       sodipodi:r1="38.267014"
       sodipodi:r2="28.317591"
       sodipodi:arg1="0.52359878"
       sodipodi:arg2="0.80919811"
       inkscape:flatsided="false"
       inkscape:rounded="0"
       inkscape:randomized="0"
       d="M 52.294327,44.481177 38.695496,45.842074 36.689082,59.360748 24.513261,53.153525 15.51661,63.441407 8.629536,51.636813 -4.500977,55.427574 -3.9127071,41.773484 -17.008238,37.863584 -9.1313951,26.695075 -18.034205,16.325879 -5.3696315,11.188874 -7.2531414,-2.3474708 6.1782504,0.17799113 11.912042,-12.227809 21.84588,-2.8416969 33.376534,-10.178199 36.658895,3.0885398 50.32551,3.1506241 45.914268,16.085893 57.377791,23.526852 46.673484,32.023795 z"
       transform="matrix(1.0959917,0,0,1.0959819,27.100502,52.843234)"
       inkscape:transform-center-x="-0.56736454"
       inkscape:transform-center-y="0.28400075" />
    <path
       inkscape:transform-center-y="0.20648167"
       inkscape:transform-center-x="-0.41246921"
       transform="matrix(0.79677424,0,0,0.79682908,32.842533,60.43144)"
       d="M 52.294327,44.481177 38.695496,45.842074 36.689082,59.360748 24.513261,53.153525 15.51661,63.441407 8.629536,51.636813 -4.500977,55.427574 -3.9127071,41.773484 -17.008238,37.863584 -9.1313951,26.695075 -18.034205,16.325879 -5.3696315,11.188874 -7.2531414,-2.3474708 6.1782504,0.17799113 11.912042,-12.227809 21.84588,-2.8416969 33.376534,-10.178199 36.658895,3.0885398 50.32551,3.1506241 45.914268,16.085893 57.377791,23.526852 46.673484,32.023795 z"
       inkscape:randomized="0"
       inkscape:rounded="0"
       inkscape:flatsided="false"
       sodipodi:arg2="0.80919811"
       sodipodi:arg1="0.52359878"
       sodipodi:r2="28.317591"
       sodipodi:r1="38.267014"
       sodipodi:cy="25.34767"
       sodipodi:cx="19.154121"
       sodipodi:sides="11"
       id="path3980"
       style="color:#000000;fill:#3465a4;fill-opacity:1;fill-rule:nonzero;stroke:none;stroke-width:6.62815905;marker:none;visibility:visible;display:inline;overflow:visible;enable-background:accumulate"
       sodipodi:type="star" />
    <path
       sodipodi:type="star"
       style="color:#000000;fill:#729fcf;fill-opacity:1;fill-rule:nonzero;stroke:none;stroke-width:6.62815905;marker:none;visibility:visible;display:inline;overflow:visible;enable-background:accumulate"
       id="path3982"
       sodipodi:sides="11"
       sodipodi:cx="19.154121"
       sodipodi:cy="25.34767"
       sodipodi:r1="38.267014"
       sodipodi:r2="28.317591"
       sodipodi:arg1="0.52359878"
       sodipodi:arg2="0.80919811"
       inkscape:flatsided="false"
       inkscape:rounded="0"
       inkscape:randomized="0"
       d="M 52.294327,44.481177 38.695496,45.842074 36.689082,59.360748 24.513261,53.153525 15.51661,63.441407 8.629536,51.636813 -4.500977,55.427574 -3.9127071,41.773484 -17.008238,37.863584 -9.1313951,26.695075 -18.034205,16.325879 -5.3696315,11.188874 -7.2531414,-2.3474708 6.1782504,0.17799113 11.912042,-12.227809 21.84588,-2.8416969 33.376534,-10.178199 36.658895,3.0885398 50.32551,3.1506241 45.914268,16.085893 57.377791,23.526852 46.673484,32.023795 z"
       transform="matrix(0.52267038,0,0,0.52270637,38.09275,67.379812)"
       inkscape:transform-center-x="-0.27057176"
       inkscape:transform-center-y="0.13544855" />
    <path
       style="fill:#ffffff;fill-opacity:1;stroke:none"
       d="m 33.863376,58.240375 c 0.03183,6.211486 5.859243,11.16605 6.047956,15.889212 0.179695,4.495645 -3.494036,11.270736 -3.565914,17.116585 -0.05172,4.173561 1.525086,9.616108 1.197524,11.818998 -0.368938,2.48137 3.549867,11.956 3.603444,15.3328 0.05172,3.25533 -8.066241,5.66908 -6.041326,7.93853 1.930758,2.1643 9.996071,-4.20433 9.965834,-5.77636 -0.03713,-1.92903 -1.43968,-2.97192 -1.417003,-3.74256 0.04376,-1.50532 1.410372,-10.81802 -0.604862,-14.06154 3.302936,-5.341097 3.438602,-15.580518 4.536,-15.57349 0.913328,0 5.431159,12.726083 8.013592,14.21272 -0.736019,3.09233 2.733749,11.6291 2.80324,14.67728 0.0252,1.0901 -1.445648,0.94316 -1.328681,3.3288 0.09416,1.92187 6.948553,10.05906 8.67455,7.25754 1.403874,-2.27834 -4.173163,-5.42798 -4.289864,-7.85564 -0.09017,-1.88819 1.015839,-14.24098 0.642391,-19.978339 C 61.474973,89.221389 53.872888,79.994095 53.595588,75.156101 53.259274,69.29016 60.216314,62.743156 60.569471,58.454471 65.525864,58.34082 73.817951,52.94662 73.705094,50.70578 73.538793,47.402499 65.458628,39.610773 62.881632,39.610773 c -3.32641,0 -5.723975,2.190818 -4.196106,3.509631 1.229616,1.061367 2.595828,-0.68646 4.258966,-0.68646 1.66327,0 5.229052,5.21034 4.901358,7.767443 -1.291283,0.737253 -2.633755,-0.759611 -4.258966,-0.686447 -1.326161,0.05981 -2.002901,1.250609 -3.219388,1.19084 -1.105222,-0.05437 -2.301685,-1.033053 -3.4081,-1.020892 -1.356928,0.01486 -2.495968,2.104683 -3.477592,2.223852 -0.881765,0.107017 -3.63315,-1.435635 -3.779956,-3.836252 -0.08222,-1.342472 1.06557,-3.282752 1.174447,-5.384837 0.13129,-2.52859 -0.996344,-5.363033 -4.412534,-5.338235 -3.30665,0.02401 -3.807541,3.129781 -3.824118,5.417792 -0.01856,2.589144 1.574816,3.485416 1.574816,5.330676 0,2.166403 -1.725998,3.798748 -3.086905,3.798748 -1.360773,0 -1.853044,-2.325462 -3.811916,-2.30004 -1.289958,0.01684 -2.108065,1.009977 -3.124435,1.046287 -0.942105,0.03369 -1.68197,-1.241644 -3.256918,-1.197496 -1.368599,0.03832 -2.928959,1.323296 -4.869266,1.002139 -0.441479,-2.783319 3.711792,-8.099765 4.888096,-8.020222 2.551269,0.17252 2.989034,3.884523 4.687184,2.268 1.405464,-1.337937 -2.072658,-4.889183 -4.661854,-4.907936 -2.288025,-0.01658 -11.123704,8.232502 -10.855555,11.402888 0.284462,3.360837 9.164038,8.454077 13.740486,7.050123 z"
       id="path3856"
       inkscape:connector-curvature="0"
       sodipodi:nodetypes="cssssssscscsssssscsssscssssssssssssscssssc" />
    <path
       style="fill:#2e3436;fill-opacity:1;stroke:none"
       d="m 46.436523,37.391686 c -3.30665,0.02401 -3.820951,3.129675 -3.837528,5.417686 -0.01856,2.589144 1.580159,3.459558 1.580159,5.304818 0,2.166403 -1.724165,3.799905 -3.085072,3.799905 -0.144533,0 -0.286115,-0.02838 -0.413851,-0.07525 0.30146,0.270598 0.627024,0.489097 1.015817,0.489097 1.360907,0 3.085071,-1.633502 3.085071,-3.799905 0,-1.84526 -1.598723,-2.753297 -1.580159,-5.34244 0.01658,-2.288012 0.493255,-5.39368 3.799905,-5.417687 0.81993,-0.0059 1.536383,0.134145 2.106878,0.413851 -0.666593,-0.503415 -1.54061,-0.798286 -2.67122,-0.790079 z m 16.40355,2.257369 c -3.32641,0 -5.704003,2.18011 -4.176133,3.498923 0.153702,0.13267 0.293189,0.209575 0.451473,0.263359 -1.267769,-1.327126 1.095605,-3.386053 4.326625,-3.386053 0.524399,0 1.277395,0.323504 2.144501,0.865324 -1.122504,-0.782087 -2.102217,-1.241553 -2.746466,-1.241553 z m -31.904152,0.150492 c -2.288025,-0.01658 -11.103521,8.229328 -10.835372,11.399714 0.117274,1.385564 1.702315,3.079313 3.837527,4.477116 -1.843868,-1.31357 -3.166512,-2.802951 -3.273185,-4.063265 -0.268149,-3.170386 8.58497,-11.416292 10.872995,-11.399714 0.647299,0.0047 1.32579,0.20787 1.994009,0.564342 -0.828745,-0.55165 -1.75768,-0.972122 -2.595974,-0.978193 z m 2.595974,0.978193 c 0.20289,0.108233 0.407987,0.246353 0.601966,0.376228 -0.185208,-0.150734 -0.402052,-0.243156 -0.601966,-0.376228 z m 30.512108,2.219746 c 1.763901,1.371131 4.027916,5.150751 3.762282,7.223582 -1.291283,0.737253 -2.626168,-0.750375 -4.251379,-0.677211 -1.32616,0.05981 -2.019075,1.2637 -3.235562,1.20393 -1.105223,-0.05437 -2.279639,-1.065599 -3.386054,-1.053439 -1.356928,0.01486 -2.517298,2.100578 -3.498923,2.219747 -0.317252,0.0385 -0.874378,-0.137373 -1.46729,-0.489097 0.787674,0.6171 1.647465,0.954139 2.069256,0.902948 0.981624,-0.119165 2.104371,-2.20489 3.461299,-2.219747 1.106416,-0.01216 2.318454,0.961447 3.423677,1.015817 1.216487,0.05976 1.909402,-1.144119 3.235562,-1.203931 1.625211,-0.07316 2.960096,1.414464 4.251379,0.677211 0.295207,-2.303598 -2.577362,-6.738767 -4.364247,-7.59981 z m -31.527924,0.150492 c 0.856816,0.71628 1.411565,1.721314 2.069255,1.918764 -0.564773,-0.547909 -1.152765,-1.442922 -2.069255,-1.918764 z m -1.617781,6.320634 c -1.24242,0.03478 -2.627354,1.098145 -4.326624,1.053438 0.004,0.111424 0.02102,0.233923 0.03762,0.338606 1.940307,0.321157 3.522368,-0.977495 4.890967,-1.015816 0.843022,-0.02363 1.432804,0.310233 1.956387,0.639588 -0.679364,-0.342407 -1.377141,-1.048928 -2.558352,-1.015816 z m 2.558352,1.015816 c 0.454583,0.285951 0.841351,0.579997 1.279176,0.564342 1.01637,-0.03631 1.832737,-1.036596 3.122694,-1.053439 0.423588,-0.0055 0.781019,0.13391 1.091062,0.300983 -0.437245,-0.388659 -0.941763,-0.686473 -1.655404,-0.677211 -1.289958,0.01684 -2.106325,1.017128 -3.122695,1.053439 -0.235526,0.0084 -0.488379,-0.07398 -0.714833,-0.188114 z m 0.94057,8.164152 c -0.167047,0.05125 -0.348831,0.07853 -0.526719,0.112868 0.328425,5.977593 5.836053,10.792578 6.019651,15.387734 0.179695,4.495645 -3.50229,11.272534 -3.574168,17.118383 -0.05172,4.17356 1.531492,9.610645 1.20393,11.813555 -0.368938,2.48137 3.520591,11.97332 3.574168,15.35011 0.05172,3.25533 -8.044566,5.66896 -6.019651,7.93842 0.145425,0.16301 0.31777,0.2667 0.52672,0.3386 -1.878956,-2.25637 6.146275,-4.667 6.094897,-7.90079 -0.05358,-3.3768 -3.98073,-12.83112 -3.611791,-15.31249 0.327561,-2.2029 -1.255651,-7.677616 -1.203931,-11.851177 0.07187,-5.845849 3.753863,-12.622738 3.574168,-17.118383 -0.188712,-4.723162 -6.025442,-9.665345 -6.057274,-15.87683 z m 13.73233,28.931949 c -0.05246,-3.36e-4 -0.101985,0.03042 -0.150491,0.07525 1.4532,2.209576 5.297431,12.444511 7.599809,13.769931 -0.736019,3.09236 2.714598,11.62473 2.784089,14.67292 0.0252,1.0901 -1.433767,0.92517 -1.316799,3.31081 0.06369,1.29993 3.223508,5.43204 5.793915,7.11071 -2.437785,-1.8689 -5.170723,-5.49569 -5.229572,-6.69686 -0.116974,-2.38564 1.379619,-2.25834 1.354421,-3.34843 -0.06949,-3.04819 -3.557731,-11.58057 -2.821711,-14.67292 C 53.560778,100.3153 49.042878,87.580534 48.12955,87.580534 z m 14.710523,38.939611 c 0.135202,0.0882 0.244804,0.18947 0.376228,0.26336 -0.127345,-0.0886 -0.246979,-0.16428 -0.376228,-0.26336 z"
       id="path3969"
       inkscape:connector-curvature="0" />
  </g>
</svg>
